# Blender 4.4.3
# www.blender.org
mtllib npc_base.mtl
o Cube.001
v -0.300000 1.990000 -0.300000
v 0.300000 1.990000 0.300000
v 0.300000 1.990000 -0.300000
v -0.300000 0.010000 0.300000
v 0.300000 0.010000 0.300000
v -0.300000 1.990000 0.300000
v -0.300000 0.010000 -0.300000
v 0.300000 0.010000 -0.300000
v -0.163471 1.831160 -0.212447
v -0.363705 1.303985 -0.539388
v -0.163471 1.504219 -0.212447
v -0.363705 2.031395 -0.539388
v 0.363705 1.303985 -0.539388
v 0.363705 2.031395 -0.539388
v 0.163471 1.504219 -0.212447
v 0.163471 1.831160 -0.212447
v 0.300000 1.634456 0.058220
v 0.300000 1.511997 0.058220
v 0.300000 1.634456 -0.058220
v 0.300000 1.511997 -0.058220
v 1.130622 1.634456 0.058220
v 1.130622 1.511997 0.058220
v 1.130622 1.634456 -0.058220
v 1.130622 1.511997 -0.058220
vn -0.0000 1.0000 -0.0000
vn -0.0000 -0.0000 1.0000
vn -1.0000 -0.0000 -0.0000
vn -0.0000 -1.0000 -0.0000
vn 1.0000 -0.0000 -0.0000
vn -0.0000 -0.0000 -1.0000
vn -0.8528 -0.0000 0.5223
vn 0.8528 -0.0000 0.5223
vn -0.0000 -0.8528 0.5223
vn -0.0000 0.8528 0.5223
vn -0.0000 0.7071 -0.7071
vn -0.0000 0.7071 0.7071
vn -0.0000 -0.7071 -0.7071
vn -0.0000 -0.7071 0.7071
vt 0.875000 0.500000
vt 0.625000 0.750000
vt 0.625000 0.500000
vt 0.375000 1.000000
vt 0.375000 0.750000
vt 0.625000 0.000000
vt 0.375000 0.250000
vt 0.375000 0.000000
vt 0.375000 0.500000
vt 0.125000 0.750000
vt 0.125000 0.500000
vt 0.625000 0.250000
vt 0.875000 0.750000
vt 0.625000 1.000000
s 1
usemtl test
f 1/1/1 2/2/1 3/3/1
f 2/2/2 4/4/2 5/5/2
f 6/6/3 7/7/3 4/8/3
f 8/9/4 4/10/4 7/11/4
f 3/3/5 2/2/5 17/2/5 19/3/5
f 1/12/6 8/9/6 7/7/6
f 9/6/7 10/7/7 11/8/7
f 12/12/6 13/9/6 10/7/6
f 14/3/8 15/5/8 13/9/8
f 16/2/2 11/4/2 15/5/2
f 13/9/9 11/10/9 10/11/9
f 12/1/10 16/2/10 14/3/10
f 1/1/1 6/13/1 2/2/1
f 2/2/2 6/14/2 4/4/2
f 6/6/3 1/12/3 7/7/3
f 8/9/4 5/5/4 4/10/4
f 5/5/5 8/9/5 20/9/5 18/5/5
f 1/12/6 3/3/6 8/9/6
f 9/6/7 12/12/7 10/7/7
f 12/12/6 14/3/6 13/9/6
f 14/3/8 16/2/8 15/5/8
f 16/2/2 9/14/2 11/4/2
f 13/9/9 15/5/9 11/10/9
f 12/1/10 9/13/10 16/2/10
f 19/3/11 17/2/12 21/2/12 23/3/11
f 20/9/13 19/3/11 23/3/11 24/9/13
f 8/9/5 3/3/5 19/3/5 20/9/5
f 2/2/5 5/5/5 18/5/5 17/2/5
f 23/3/5 22/5/5 24/9/5
f 23/3/5 21/2/5 22/5/5
f 18/5/14 20/9/13 24/9/13 22/5/14
f 17/2/12 18/5/14 22/5/14 21/2/12
